# xmcd
#
# Track frame offsets: 
#        150
#        17093
#        31253
#        49082
#        67485
#        83165
#        98605
#        113670
#        133463
#
# Disc length: 1971 seconds
#
# Revision: 0
# Processed by: cddbd v1.5.2PL0 Copyright (c) Steve Scherf et al.
# Submitted via: ExactAudioCopyFreeDBPlugin 1.0
#
DISCID=7807b109
DTITLE=森昌子 - あのころ
DYEAR=2007
DGENRE=Vocal
TTITLE0=港が見える丘
TTITLE1=いいじゃないの幸せならば
TTITLE2=赤ちょうちん
TTITLE3=夏の日の想い出
TTITLE4=悲しみは駆け足でやってくる
TTITLE5=想い出まくら
TTITLE6=悲しくてやりきれない
TTITLE7=雨に濡れた慕情
TTITLE8=星影の小径
EXTD=
EXTT0=
EXTT1=
EXTT2=
EXTT3=
EXTT4=
EXTT5=
EXTT6=
EXTT7=
EXTT8=
PLAYORDER=
